<?xml version="1.0" encoding="UTF-8"?><svg id="Capa_1" xmlns="http://www.w3.org/2000/svg" viewBox="0 0 150 150"><defs><style>.cls-1{fill:#c20e1a;}</style></defs><path class="cls-1" d="m29.02,54.9c.09-.34.19-.68.27-1.02,1.29-5.73,6.07-9.66,11.94-9.79.62-.01,1.24,0,1.79,0,.24-.83.36-1.58.67-2.24.92-1.96,2.53-3.01,4.68-3.08,2.42-.07,4.85-.06,7.27,0,2.75.06,4.85,2.05,5.18,4.78.02.14.05.29.08.53.4,0,.78,0,1.16,0,15.35,0,30.7,0,46.05,0,5.36,0,9.27,2.38,11.69,7.16.79,1.57,1.16,3.27,1.16,5.03,0,14.27.03,28.55,0,42.82-.02,6.57-5.37,11.95-11.95,12.19-.27,0-.54.01-.81.01-22.14,0-44.28,0-66.42,0-5.92,0-10.79-3.62-12.31-9.12-.17-.6-.3-1.21-.44-1.82,0-15.15,0-30.3,0-45.44Zm3.6,10.4c-.02.36-.04.63-.04.89,0,10.81,0,21.61,0,32.42,0,.6.02,1.2.12,1.79.82,4.44,4.39,7.32,9.07,7.32,22.12,0,44.23,0,66.35,0,5.55,0,9.29-3.73,9.29-9.29.01-10.72,0-21.43,0-32.15,0-.31-.03-.63-.04-.98-1.27,0-2.44,0-3.6,0-3.41,0-6.82.01-10.24,0-1.32,0-2.11-.83-1.98-2,.1-.97.85-1.56,2.06-1.56,4.25,0,8.5,0,12.75,0,.32,0,.64,0,1.05,0,0-1.02.03-1.94,0-2.85-.06-1.55.04-3.15-.3-4.64-.92-4.06-4.52-6.65-8.98-6.65-15.56,0-31.12,0-46.69,0-6.55,0-13.11-.01-19.66,0-4.68.01-8.38,2.9-9.03,7.35-.32,2.19-.06,4.46-.06,6.79h.93c4.13,0,8.26,0,12.39,0,.3,0,.6-.01.9.03.91.14,1.52.83,1.54,1.71.02.93-.59,1.65-1.54,1.79-.32.05-.66.03-.99.03-4.4,0-8.79,0-13.3,0Zm24.62-21.27c-.15-1.11-.67-1.69-1.61-1.7-2.42-.03-4.84-.03-7.25,0-.98.01-1.55.68-1.54,1.7h10.4Z"/><path class="cls-1" d="m101.53,77.64c.04,14.6-11.94,26.58-26.55,26.54-14.62-.03-26.49-11.89-26.51-26.49-.03-14.57,11.87-26.51,26.46-26.56,14.61-.05,26.57,11.87,26.6,26.51Zm-26.51-22.95c-12.67-.01-22.97,10.24-23.01,22.9-.04,12.68,10.29,23.06,22.96,23.07,12.63.02,22.98-10.3,23.01-22.93.03-12.71-10.26-23.03-22.96-23.04Z"/><path class="cls-1" d="m106.85,59.96c-2.95,0-5.3-2.32-5.31-5.26,0-2.93,2.34-5.32,5.26-5.34,2.89-.02,5.32,2.39,5.34,5.29.02,2.9-2.37,5.3-5.29,5.31Zm1.73-5.27c0-.97-.77-1.76-1.74-1.77-.96,0-1.77.78-1.78,1.74,0,.96.78,1.77,1.75,1.78.96,0,1.76-.79,1.77-1.75Z"/><path class="cls-1" d="m74.97,58.21c10.69-.03,19.41,8.65,19.45,19.39.05,10.75-8.66,19.5-19.41,19.51-10.72,0-19.42-8.66-19.45-19.38-.04-10.76,8.64-19.49,19.41-19.52Zm-15.9,19.47c.01,8.78,7.18,15.91,15.96,15.89,8.76-.03,15.86-7.13,15.89-15.87.02-8.76-7.16-15.95-15.92-15.95-8.76,0-15.94,7.18-15.93,15.94Z"/><path class="cls-1" d="m75.44,65.14c6.41.3,11.92,5.91,11.93,12.24,0,1.18-.66,1.99-1.68,2.04-1.05.06-1.79-.72-1.88-1.96-.33-4.96-3.53-8.21-8.5-8.61-.89-.07-1.65-.3-1.98-1.24-.25-.7-.11-1.37.45-1.79.46-.35,1.1-.47,1.66-.69Z"/></svg>