<?xml version="1.0" encoding="UTF-8"?><svg id="Capa_1" xmlns="http://www.w3.org/2000/svg" viewBox="0 0 150 150"><defs><style>.cls-1{fill:#c20e1a;}</style></defs><path class="cls-1" d="m51.95,104.76h50.49c.08.14.15.22.15.29-.01,2.56.03,5.12-.07,7.68-.15,3.84-3.39,6.93-7.55,6.94-2.13,0-4.25,0-6.38,0-10.6,0-21.2,0-31.8,0-3.22,0-5.7-1.32-7.12-4.28-.41-.87-.67-1.89-.7-2.84-.09-3.05-.03-6.1-.03-9.22h2.87c.04.46.09.91.13,1.43Zm.03,3.03c0,1.82-.13,3.55.03,5.24.21,2.18,2.22,3.66,4.71,3.66,12.7,0,25.39,0,38.09,0,.35,0,.7-.01,1.04-.08,1.82-.35,3.21-1.36,3.53-3.18.32-1.83.24-3.73.33-5.64h-47.74Z"/><path class="cls-1" d="m51.95,45.06c-.05.56-.1,1.01-.14,1.5h-2.84c-.03-.16-.08-.3-.08-.44.03-3.12-.03-6.24.13-9.34.19-3.63,3.78-6.48,6.93-6.46,13.2.09,26.4.08,39.59,0,2.98-.02,6.5,2.44,6.88,6,.31,2.84.06,5.75.06,8.74h-50.53Zm.03-3h47.72c-.08-1.89.02-3.77-.29-5.58-.36-2.1-2.25-3.32-4.62-3.32-12.7,0-25.39,0-38.09,0-.35,0-.7.02-1.04.08-1.88.32-3.47,1.73-3.64,3.52-.16,1.73-.03,3.48-.03,5.31Z"/><path class="cls-1" d="m45.85,71.95c-2.33,0-4.66,0-6.99,0-3.05-.01-4.88-1.86-4.89-4.92,0-4.69,0-9.38,0-14.07,0-3,1.82-4.87,4.83-4.89,4.75-.03,9.5-.03,14.24,0,2.97.02,4.78,1.85,4.8,4.83.03,4.75.03,9.5,0,14.24-.02,3-1.89,4.79-4.92,4.8-2.36,0-4.72,0-7.08,0Zm-8.9-11.92c0,2.56-.03,4.97.01,7.38.02,1.01.65,1.56,1.73,1.56,4.8.02,9.61.02,14.41,0,1.16,0,1.71-.56,1.75-1.71.04-.96.01-1.92.01-2.88,0-1.42,0-2.84,0-4.34-1.55,0-3-.02-4.45.02-.18,0-.42.26-.53.46-.86,1.61-2.22,2.47-4.02,2.46-1.76-.02-3.09-.87-3.93-2.46-.11-.21-.4-.46-.61-.47-1.42-.04-2.84-.02-4.37-.02Zm0-2.99c1.55,0,3,.02,4.45-.02.19,0,.43-.27.53-.47.86-1.61,2.19-2.47,4.01-2.46,1.79,0,3.09.86,3.94,2.44.1.19.28.48.43.48,1.5.04,3,.02,4.55.02,0-1.42.01-2.7,0-3.98-.01-1.5-.5-1.98-2.01-1.99-2.24-.01-4.48,0-6.73,0-2.42,0-4.83,0-7.25,0-1.28,0-1.89.5-1.92,1.63-.04,1.39,0,2.79,0,4.34Zm10.44,1.52c.02-.78-.61-1.45-1.4-1.49-.85-.04-1.52.58-1.54,1.42-.02.79.59,1.45,1.38,1.5.8.05,1.54-.62,1.56-1.43Z"/><path class="cls-1" d="m90.65,74.92c0,8.23-6.61,14.88-14.87,14.91-8.22.03-14.89-6.59-14.93-14.84-.04-8.24,6.65-14.96,14.91-14.95,8.23,0,14.88,6.65,14.88,14.89Zm-2.98,0c-.01-6.61-5.36-11.92-11.96-11.89-6.58.03-11.86,5.31-11.87,11.89-.02,6.61,5.3,11.94,11.92,11.94,6.61,0,11.93-5.33,11.92-11.93Z"/><path class="cls-1" d="m57.84,89.96c-.21,7.74-6.27,13.49-14.02,13.29-7.18-.19-13.03-6.47-12.82-13.77.21-7.32,6.33-13.2,13.57-13.03,7.47.17,13.46,6.28,13.27,13.52Zm-2.99-.12c-.02-5.78-4.7-10.44-10.47-10.41-5.79.03-10.44,4.72-10.41,10.48.03,5.76,4.75,10.41,10.52,10.38,5.72-.03,10.38-4.73,10.36-10.44Z"/><path class="cls-1" d="m105.57,76.44c7.38-.02,13.36,5.93,13.43,13.36.07,7.39-5.97,13.46-13.4,13.46-7.44,0-13.43-6-13.42-13.44,0-7.39,5.99-13.36,13.4-13.38Zm10.44,13.41c0-5.79-4.67-10.44-10.45-10.42-5.79.02-10.43,4.69-10.41,10.47.02,5.73,4.68,10.38,10.41,10.39,5.78,0,10.45-4.66,10.45-10.44Z"/><path class="cls-1" d="m119,59.98c.04,7.41-6,13.45-13.42,13.44-7.37-.01-13.35-5.94-13.4-13.29-.05-7.44,5.9-13.48,13.34-13.53,7.42-.05,13.45,5.93,13.49,13.38Zm-2.99.04c0-5.78-4.66-10.44-10.44-10.44-5.72,0-10.4,4.66-10.42,10.38-.02,5.79,4.61,10.45,10.4,10.48,5.78.02,10.45-4.63,10.46-10.42Z"/><path class="cls-1" d="m51.81,76.38h-2.85v-2.89h2.85v2.89Z"/><path class="cls-1" d="m102.55,76.38h-2.86v-2.86h2.86v2.86Z"/><path class="cls-1" d="m75.81,110.77c.52,0,1.05-.04,1.57,0,.75.07,1.32.66,1.33,1.38,0,.76-.36,1.39-1.11,1.45-1.24.1-2.49.1-3.73-.01-.75-.07-1.1-.72-1.07-1.47.03-.72.6-1.26,1.36-1.36.06,0,.12-.01.17-.01.49,0,.99,0,1.48,0,0,0,0,.01,0,.02Z"/><path class="cls-1" d="m71.29,39.11c-1.42,0-2.85.01-4.27,0-1.04-.01-1.7-.61-1.7-1.47,0-.86.67-1.48,1.71-1.49,2.85-.02,5.7-.02,8.55,0,1.04,0,1.66.64,1.64,1.53-.02.86-.63,1.41-1.64,1.43-1.42.02-2.85,0-4.27,0Z"/><path class="cls-1" d="m59.35,39.1c-.52,0-1.05.03-1.57,0-.81-.05-1.27-.54-1.39-1.32-.11-.69.37-1.46,1.12-1.53,1.21-.1,2.44-.11,3.64,0,.78.07,1.17.7,1.14,1.51-.04.73-.59,1.28-1.36,1.34-.52.04-1.05,0-1.57,0Z"/><path class="cls-1" d="m75.77,71.91c2.29.14,2.95.49,2.95,1.53,0,1.05-.67,1.4-2.97,1.53v.91c0,2.39,0,4.77,0,7.16,0,.2,0,.41,0,.61-.04,1.03-.62,1.71-1.49,1.71-.86,0-1.48-.67-1.48-1.7-.02-2.56,0-5.12,0-7.69,0-.31,0-.63,0-1-1.24-.15-2.85.34-2.95-1.61-.05-1,.63-1.31,2.95-1.45,0-.96-.02-1.94,0-2.91.06-2.46,1.7-4.23,4.14-4.48,2.42-.25,4.76,1.84,4.78,4.27,0,.9-.48,1.51-1.26,1.61-.86.11-1.46-.35-1.68-1.28-.03-.14-.03-.29-.07-.43-.2-.78-.72-1.21-1.51-1.18-.8.03-1.33.52-1.39,1.31-.07,1.01-.02,2.02-.02,3.09Z"/><path class="cls-1" d="m41.45,85.39c0-1.05-.02-1.95,0-2.84.03-.99.61-1.63,1.45-1.64.82-.01,1.45.63,1.52,1.6.03.46,0,.93,0,1.4,0,.46,0,.92,0,1.5,1.55,0,3.03-.02,4.5,0,.82.01,1.31.51,1.41,1.29.09.74-.26,1.31-1,1.54-.33.1-.69.12-1.03.13-1.25.01-2.5,0-3.88,0,0,1.05,0,2.05,0,3.06,0,.96-.02,1.92.02,2.88.03.85.56,1.39,1.33,1.46.79.06,1.35-.36,1.58-1.2.04-.14.05-.29.08-.43.2-.91.84-1.38,1.69-1.25.78.12,1.27.76,1.25,1.63-.06,2.29-2.01,4.19-4.38,4.26-2.3.06-4.38-1.72-4.5-3.99-.1-1.89-.04-3.78-.05-5.67,0-.2,0-.4,0-.75-.51,0-.96.03-1.41,0-.98-.07-1.58-.68-1.55-1.54.02-.87.61-1.39,1.64-1.43.4-.01.8,0,1.33,0Z"/><path class="cls-1" d="m102.62,89.78c0-1.83,0-3.67,0-5.5,0-.75.14-1.41.89-1.74.7-.31,1.29-.02,1.85.42,2.29,1.84,4.6,3.67,6.89,5.52,1.06.86,1.09,1.84.03,2.7-2.33,1.89-4.68,3.75-7.02,5.63-.54.43-1.1.66-1.77.33-.67-.32-.86-.9-.86-1.59,0-1.92,0-3.84,0-5.77Zm6.56.06c-1.21-.96-2.32-1.84-3.51-2.78v5.57c1.21-.97,2.32-1.85,3.51-2.79Z"/><path class="cls-1" d="m103.2,57.03c-.61,0-1.28.03-1.94,0-1.01-.06-1.6-.63-1.6-1.49,0-.87.58-1.46,1.6-1.47,2.56-.02,5.13-.06,7.69.05,2.29.1,4,1.97,4.07,4.23.07,2.33-1.52,4.27-3.82,4.56-1.21.15-2.49.45-3.6-.8,0,1.01,0,1.85,0,2.68,0,.82.02,1.63,0,2.45-.04,1.05-.63,1.71-1.49,1.71-.87,0-1.47-.65-1.48-1.7-.02-2.83-.04-5.65.02-8.48.01-.55.34-1.1.56-1.74Zm1.46.03c1.41,1.09.72,2.5.96,3.47.73-.18,1.41-.36,2.11-.5.34-.07.7-.01,1.04-.07.84-.15,1.3-.72,1.27-1.5-.03-.78-.55-1.35-1.4-1.38-1.24-.05-2.49-.01-3.97-.01Z"/></svg>