<?xml version="1.0" encoding="UTF-8"?><svg id="Capa_1" xmlns="http://www.w3.org/2000/svg" viewBox="0 0 150 150"><defs><style>.cls-1{fill:#c20e1a;}</style></defs><path class="cls-1" d="m25.92,87.16c.32.02.63.06.95.06,12.75,0,25.5,0,38.26,0h.96q-.26-1.61-1.69-1.61c-8.57,0-17.13,0-25.7,0h-1.23v-52.3h75.09v52.27h-12.94v1.61h24.39c0,2.03.19,3.95-.05,5.83-.32,2.56-2.43,4.04-5.34,4.04-5.94.01-11.89,0-17.83,0-.38,0-.75,0-1.23,0v19.63h-29.53c.02-5.88.04-11.75.05-17.63,0-.09-.02-.19-.04-.28-.35-1.69-.38-1.72-2.1-1.72-12.11,0-24.21,0-36.32,0-1.23,0-2.41-.13-3.48-.83-1.15-.76-1.74-1.9-2.21-3.13,0-1.98,0-3.96,0-5.95Zm14.8-50.61v45.74h24.07c.4-3.13,2.16-4.76,5.31-4.95,0-2.92-.02-5.76.01-8.6,0-.61-.18-.97-.69-1.32-4.6-3.15-5.57-9.54-2.15-14.04,3.3-4.34,9.76-5.04,14-1.53,4.96,4.11,4.65,11.85-.61,15.58-.29.2-.66.51-.69.8-.09.84-.03,1.7-.03,2.63.46,0,.81,0,1.15,0,4.44,0,8.89-.02,13.33,0,3.06.02,5.1,2.09,5.14,5.13.02,1.15,0,2.3,0,3.45,0,.94,0,1.89,0,2.84h9.74v-45.74H40.71Zm55.58,60.47c0-1.37,0-2.65,0-3.92,0-5.59,0-11.18,0-16.77,0-1.32-.42-1.98-1.44-2.13-.58-.09-1.18-.02-1.87-.02v4.83h-3.24v-4.79h-3.28v4.78h-3.29v-4.8h-3.26v4.81h-3.25c0-.44,0-.81,0-1.19,0-5.3,0-10.61,0-15.91,0-.41-.01-.84-.1-1.24-.17-.8-.74-1.2-1.51-1.21-.81,0-1.41.4-1.58,1.25-.08.4-.09.82-.09,1.24,0,5.85,0,11.69,0,17.54,0,.37,0,.74,0,1.19-1.12,0-2.11,0-3.09,0-1.82.01-2.5.95-1.93,2.66,1.43,4.3,2.88,8.59,4.28,12.89.22.68.55.85,1.22.85,7.16-.02,14.31-.01,21.47-.02.28,0,.56-.03.98-.05Zm-.06,16.38v-13.02h-22.78v13.02h22.78Zm-27.87-19.62c-.3-.89-.6-1.6-.76-2.34-.17-.77-.56-.96-1.33-.96-12.01.03-24.03.02-36.04.02-.34,0-.67.03-.99.05-.23,2.75.21,3.23,2.83,3.23,11.66,0,23.33,0,34.99,0h1.3Zm31.22-.05c.31.02.53.05.74.05,6.1,0,12.2,0,18.31,0,.22,0,.45-.02.67-.04.89-.09,1.39-.63,1.5-1.48.07-.55.01-1.12.01-1.68h-21.23v3.15Zm-29.55-30.21c.05-1.12.05-2.07.15-3.01.27-2.52,2.38-4.4,4.86-4.38,2.47.02,4.54,1.87,4.8,4.33.1.96.1,1.93.15,2.97,1.81-1.69,2.38-5.79-.23-8.49-2.5-2.59-6.44-2.77-9.07-.44-2.61,2.31-2.97,6.32-.67,9.02Z"/><path class="cls-1" d="m25.92,113.62c.58-1.53.94-3.2,1.78-4.58,2.07-3.42,5.23-5.26,9.25-5.39,2.93-.1,5.87-.09,8.8-.02,6.35.16,11.15,5.07,11.24,11.43,0,.54,0,1.08-.01,1.63h-31.07c0-1.03,0-2.05,0-3.07Zm17.96-6.73c-2.01,0-3.96-.04-5.9.02-1.04.03-2.11.13-3.11.4-2.76.75-5.19,3.56-5.37,6.06h14.38v-6.49Zm3.38.25v6.22h6.22c-.61-3.15-3.07-5.61-6.22-6.22Z"/><path class="cls-1" d="m55.32,43.02h-8.07v8.14h-3.25v-11.32h11.33v3.18Z"/><path class="cls-1" d="m59.35,45.82c.65-.7,1.36-1.46,2-2.13,1.63,1.62,3.22,3.21,4.84,4.82-.7.67-1.44,1.39-2.13,2.05-1.57-1.58-3.18-3.19-4.72-4.74Z"/><path class="cls-1" d="m59.36,71.23c1.48-1.49,3.06-3.07,4.61-4.62.69.71,1.41,1.46,2.05,2.12-1.48,1.48-3.07,3.07-4.63,4.63-.58-.6-1.29-1.35-2.03-2.12Z"/><path class="cls-1" d="m87.58,50.63c-.73-.71-1.45-1.42-2.1-2.06,1.63-1.63,3.24-3.24,4.83-4.84.66.65,1.4,1.37,2.1,2.06-1.61,1.61-3.21,3.21-4.83,4.83Z"/><path class="cls-1" d="m73.42,46.27v-6.43h3.18v6.43h-3.18Z"/><path class="cls-1" d="m61.88,57.85v3.14h-6.42v-3.14h6.42Z"/><path class="cls-1" d="m88.14,61.01v-3.14h6.43v3.14h-6.43Z"/><path class="cls-1" d="m44.01,54.56h3.13v3.18h-3.13v-3.18Z"/></svg>