<?xml version="1.0" encoding="UTF-8"?><svg id="Capa_1" xmlns="http://www.w3.org/2000/svg" viewBox="0 0 150 150"><defs><style>.cls-1{fill:#c20e1a;}</style></defs><path class="cls-1" d="m80.63,83.85c1.02.53,1.93,1,2.84,1.48,1.42.75,2.33.64,2.86-.33.54-1,.14-1.81-1.28-2.56-.79-.42-1.59-.83-2.38-1.25-.05-.03-.08-.1-.15-.21,1.2-1.96,1.79-4.08,1.44-6.42-.03-.19.24-.51.45-.63.83-.49,1.69-.92,2.53-1.38,1.14-.63,1.5-1.53.99-2.43-.5-.89-1.39-1.06-2.51-.48-.44.23-.88.47-1.32.7-.44.23-.87.47-.95.31-.85-.63-1.67-1.33-2.57-1.88-.98-.6-2-1.21-3.08-1.56-.75-.24-.9-.55-.88-1.24.04-1.26.03-2.52,0-3.79-.02-1.23-.65-1.97-1.63-1.99-1.01-.01-1.66.78-1.67,2.05,0,1.36.02,2.72-.02,4.08,0,.25-.24.66-.44.71-2.41.6-4.24,1.99-5.61,4.06-.86-.46-1.67-.9-2.49-1.34-1.32-.71-2.26-.59-2.78.35-.54.98-.18,1.96,1.26,2.55,1.96.8,3.01,1.83,2.8,4.21-.12,1.36.75,2.81,1.21,4.35-.79.42-1.76.91-2.71,1.43-1.01.55-1.37,1.43-.95,2.29.43.9,1.41,1.15,2.47.62,1.07-.53,2.12-1.1,3.41-1.77.19.63.42,1.18.51,1.75.08.55,0,1.13.03,1.69.05.76-.13,1.35-.69,1.95-1.36,1.48-1.24,3.73.05,5.29.34.41.58,1.02.6,1.55.06,2.19.02,4.38.02,6.57,0,.1-.03.19-.07.44-1.79,0-3.6.01-5.41-.02-.2,0-.44-.27-.58-.47-4.36-6.27-8.71-12.54-13.03-18.84-.17-.25-.21-.78-.07-1.03,7.95-13.95,15.92-27.89,23.89-41.83.05-.08.13-.15.25-.28.17.26.34.48.48.72,7.84,13.71,15.67,27.42,23.52,41.13.32.55.35.93-.04,1.49-4.28,6.12-8.52,12.27-12.76,18.42-.35.52-.71.77-1.37.75-1.59-.05-3.18-.02-4.91-.02,0-.99,0-1.91,0-2.83,0-1.06.01-2.13,0-3.19-.01-1.08.03-2.03.87-2.98,1.27-1.43.97-3.63-.3-5.12-.3-.36-.55-.91-.53-1.37.05-1.16-.42-2.4.45-3.45.06-.08.13-.15.22-.26Z"/><path class="cls-1" d="m37.68,73.25q2.65.48,2.66,3.22c0,1.56.01,3.12,0,4.68-.01,1.56-.56,2.11-2.09,2.12-1.96,0-3.92.01-5.88,0-1.3-.01-1.89-.59-1.9-1.88-.02-2.03-.01-4.05,0-6.08,0-1.31.57-1.87,1.87-1.93,1.81-.08,1.8-.08,2.39-1.87,5.5-16.55,15.92-28.96,31.27-37.23.17-.09.34-.19.69-.39-.41-.04-.65-.08-.88-.08-8.3,0-16.61,0-24.91-.02-.62,0-.92.2-1.22.74-1.12,2.05-3.41,3-5.59,2.39-2.18-.61-3.64-2.52-3.63-4.79,0-2.26,1.47-4.16,3.67-4.76,2.18-.59,4.46.36,5.58,2.42.31.57.66.7,1.25.69,22.69-.01,45.37-.01,68.06,0,.62,0,.98-.13,1.31-.74,1.07-2.01,3.36-2.96,5.51-2.39,2.22.58,3.76,2.56,3.75,4.82-.01,2.22-1.54,4.18-3.7,4.75-2.14.57-4.41-.38-5.55-2.35-.25-.44-.41-.8-1.07-.8-8.47.03-16.94.02-25.41.02-.1,0-.2.02-.48.06.35.22.57.38.8.5,15.57,8.44,26.02,21.11,31.34,38,.24.76.53,1.15,1.36,1.02.32-.05.66-.02.99,0,1.06.09,1.67.65,1.69,1.72.04,2.12.04,4.25,0,6.38-.02,1.16-.67,1.77-1.83,1.78-2.09.02-4.19.02-6.28,0-1.15-.01-1.78-.64-1.79-1.81-.02-1.96-.01-3.92,0-5.88,0-1.62.47-2.1,2.12-2.2.16,0,.31-.04.7-.09-.88-2.28-1.61-4.51-2.57-6.64-6.93-15.43-18.29-26.24-34.05-32.4-.47-.18-1.13-.21-1.59-.02-17.97,7.1-30.05,19.83-36.3,38.1-.1.3-.17.62-.25.93Z"/><path class="cls-1" d="m75.04,106.37c4.35,0,8.7-.02,13.05,0,2.44.02,4.03,2.27,3.17,4.45-.52,1.33-1.54,2.11-2.97,2.11-8.86.02-17.73.03-26.59,0-1.81,0-3.19-1.49-3.19-3.28s1.4-3.27,3.29-3.28c4.41-.03,8.83,0,13.24-.01Z"/><path class="cls-1" d="m63.47,122.81v-6.47h22.97v6.47h-22.97Z"/><path class="cls-1" d="m76.64,87.59h-3.26c-.02-.33-.08-.62-.04-.9.3-2.04-.43-3.7-1.61-5.33-.95-1.33-1.88-2.78-2.35-4.32-.74-2.49.6-5.07,2.87-6.28,2.3-1.22,5.15-.75,6.94,1.15,1.75,1.86,2.08,4.67.74,6.9-.61,1.02-1.24,2.05-1.98,2.98-1.05,1.32-1.54,2.74-1.33,4.42.05.42,0,.85,0,1.38Z"/><path class="cls-1" d="m76.58,95.91v7.08h-3.18v-7.08h3.18Z"/><path class="cls-1" d="m74.97,90.94c.79,0,1.6-.08,2.37.04.34.05.62.51.93.78-.32.27-.62.77-.95.79-1.55.08-3.1.05-4.65.03-.56,0-1.06-.28-.91-.88.08-.31.58-.68.93-.73.74-.11,1.51-.03,2.27-.03Z"/></svg>