<?xml version="1.0" encoding="UTF-8"?><svg id="Capa_1" xmlns="http://www.w3.org/2000/svg" viewBox="0 0 150 150"><defs><style>.cls-1{fill:#c20e1a;}</style></defs><path class="cls-1" d="m118.75,113.13c-.52.39-.98.96-1.56,1.14-.82.25-1.57-.42-1.86-1.48-.82-2.96-1.64-5.92-2.41-8.89-.17-.67-.44-.88-1.15-.88-10.28.03-20.57.03-30.85,0-.73,0-.96.25-1.13.9-.77,2.97-1.59,5.93-2.41,8.89-.33,1.18-1.26,1.75-2.22,1.41-.92-.33-1.36-1.16-1.09-2.2.44-1.71.91-3.4,1.39-5.18-.33-.02-.6-.04-.87-.04-12.48,0-24.96,0-37.44-.02-.73,0-.97.24-1.14.89-.42,1.71-.9,3.41-1.38,5.11-.32,1.15-1.19,1.74-2.12,1.49-1.02-.28-1.49-1.19-1.16-2.38,2.77-10.18,5.54-20.36,8.32-30.54,3.96-14.51,7.92-29.03,11.88-43.54.52-1.89.82-2.13,2.79-2.13,13.82,0,27.64,0,41.45,0,1.73,0,2.13.31,2.58,1.97,6.69,24.53,13.37,49.06,20.06,73.59.08.3.21.58.32.87v1.03Zm-41.23-13.85c-3.97,0-7.81,0-11.66,0-.37,0-.75-.01-1.1-.11-.78-.21-1.17-.79-1.22-1.57-.05-.74.49-1.44,1.25-1.64.32-.08.67-.1,1.01-.1,3.87,0,7.75-.03,11.62.02.78,0,1.11-.19,1.32-.98,3.83-14.17,7.7-28.32,11.56-42.48.52-1.91,1.03-3.82,1.55-5.77-.25-.01-.39-.03-.53-.03-3.76,0-7.52,0-11.28,0-1.19,0-1.97-.68-1.99-1.67-.02-1.01.78-1.72,2.01-1.74.2,0,.4,0,.6,0,3.79,0,7.58,0,11.37-.01.29,0,.78-.13.84-.31.39-1.22.7-2.48,1.05-3.79-.3,0-.47,0-.64,0-12.59,0-25.19,0-37.78,0-.11,0-.25-.04-.34,0-.19.11-.47.23-.52.4-.36,1.19-.67,2.4-1.02,3.69.39,0,.7,0,1.01,0,3.59,0,7.18,0,10.77,0,.28,0,.57-.01.85.03.89.13,1.53.85,1.52,1.68,0,.84-.64,1.54-1.54,1.67-.28.04-.57.03-.85.03-3.87,0-7.75.03-11.62-.02-.81,0-1.15.2-1.38,1.03-3.59,13.29-7.22,26.57-10.85,39.85-.75,2.77-1.51,5.54-2.28,8.39h1.01c3.56,0,7.12,0,10.68,0,.37,0,.75.02,1.1.12.77.23,1.18.81,1.18,1.59,0,.78-.42,1.36-1.19,1.58-.35.1-.73.11-1.1.11-3.96,0-7.92,0-11.88.02-.28,0-.74.16-.8.35-.39,1.21-.69,2.44-1.04,3.74h.78c12.54,0,25.07,0,37.61,0,.11,0,.25.04.34,0,.21-.13.51-.26.57-.45.36-1.17.66-2.35,1.01-3.64Zm3.47.3h30.72c-1.86-6.83-3.71-13.61-5.56-20.4-.19.07-.25.08-.29.11-1.35.9-2.72,1.77-4.04,2.71-.34.24-.64.64-.78,1.03-.77,2.12-2.66,3.49-4.88,3.47-2.23-.02-4.12-1.4-4.83-3.53-.08-.24-.13-.56-.3-.68-1.43-1.05-2.89-2.07-4.45-3.18-1.89,6.91-3.73,13.67-5.58,20.47Zm15.46-55.95c-.05,0-.11,0-.16,0-.09.28-.19.56-.27.85-1.17,4.28-2.33,8.56-3.5,12.83-1.59,5.84-3.19,11.68-4.76,17.52-.08.3-.08.83.11.96,1.28.98,2.62,1.89,3.93,2.82,2.29-2.95,6.16-3.29,8.81.05,1.29-.86,2.58-1.75,3.9-2.58.52-.33.63-.64.47-1.24-2.35-8.55-4.68-17.11-7.01-25.66-.5-1.85-1.01-3.7-1.51-5.55Zm-.3,39.43c.93.01,1.71-.73,1.72-1.65.02-.9-.75-1.69-1.67-1.7-.92-.01-1.71.74-1.72,1.65-.02.91.75,1.69,1.67,1.7Z"/><path class="cls-1" d="m85.8,56.08c-.46.58-.78,1.16-1.25,1.56-4.75,4.09-9.53,8.14-14.3,12.21-6.79,5.78-13.58,11.56-20.37,17.34-.26.22-.53.44-.83.59-.7.36-1.52.19-2.02-.39-.53-.61-.56-1.46-.05-2.12.21-.27.47-.5.73-.72,11.56-9.85,23.12-19.69,34.68-29.54.94-.8,1.75-.96,2.44-.35.38.33.59.84.96,1.41Z"/><path class="cls-1" d="m77.03,80.81c-.07,3.97-3.95,7.98-7.91,8.2-3.12.17-5.28-2.3-4.89-5.56.44-3.64,4-7.11,7.64-7.46,3.04-.29,5.21,1.74,5.16,4.82Zm-9.42,3.35c-.02,1.04.5,1.51,1.53,1.42,2.04-.19,4.42-2.71,4.48-4.75.04-1.07-.44-1.54-1.48-1.45-2.09.17-4.49,2.7-4.53,4.79Z"/><path class="cls-1" d="m54.12,61.89c.07-4.02,3.93-8.02,7.96-8.24,3.08-.17,5.28,2.4,4.83,5.61-.51,3.66-3.93,6.99-7.6,7.41-2.99.35-5.24-1.73-5.19-4.79Zm9.42-3.38c.02-1.01-.46-1.49-1.44-1.43-2.12.13-4.62,2.82-4.58,4.93.02.91.5,1.35,1.4,1.31,2.09-.11,4.58-2.7,4.62-4.8Z"/><path class="cls-1" d="m74.62,44.87c.03.89-.76,1.71-1.66,1.74-.89.03-1.71-.76-1.74-1.66-.03-.89.76-1.71,1.66-1.74.89-.03,1.71.76,1.74,1.66Z"/><path class="cls-1" d="m58.38,95.87c.89,0,1.7.8,1.7,1.69,0,.89-.8,1.7-1.69,1.7-.89,0-1.7-.8-1.7-1.69,0-.89.8-1.7,1.69-1.7Z"/></svg>